<?xml version="1.0" standalone="no"?><!DOCTYPE svg PUBLIC "-//W3C//DTD SVG 1.1//EN" "http://www.w3.org/Graphics/SVG/1.1/DTD/svg11.dtd"><svg t="1622726725502" class="icon" viewBox="0 0 1024 1024" version="1.1" xmlns="http://www.w3.org/2000/svg" p-id="7556" xmlns:xlink="http://www.w3.org/1999/xlink" width="64" height="64"><defs><style type="text/css"></style></defs><path d="M384 223.146667a96 96 0 0 1 96-96h64A96 96 0 0 1 640 223.146667V896h-10.666667a32 32 0 0 1-10.666666-1.834667 32 32 0 0 1-10.666667 1.834667h-192a32 32 0 0 1-10.666667-1.834667 32 32 0 0 1-10.666666 1.834667H384V223.146667zM320 426.666667H224A96 96 0 0 0 128 522.666667v341.333333c0 17.664 14.336 32 32 32H320V426.666667zM704 896h160a32 32 0 0 0 32-32v-469.333333A96 96 0 0 0 800 298.666667H704v597.333333z" p-id="7557"></path></svg>