<?xml version="1.0" standalone="no"?><!DOCTYPE svg PUBLIC "-//W3C//DTD SVG 1.1//EN" "http://www.w3.org/Graphics/SVG/1.1/DTD/svg11.dtd"><svg t="1622726399511" class="icon" viewBox="0 0 1024 1024" version="1.1" xmlns="http://www.w3.org/2000/svg" p-id="6670" xmlns:xlink="http://www.w3.org/1999/xlink" width="64" height="64"><defs><style type="text/css"></style></defs><path d="M929.1 417.3H859c-8.1-29.8-20.1-58.8-36-86.1l51.7-51.7c11.7-11.7 11.7-30.8 0-42.4l-91.9-91.9c-11.7-11.7-30.8-11.7-42.4 0l-52.6 52.6c-26.2-14.7-53.8-25.9-82.1-33.5v-70c0-16.5-13.5-30-30-30h-130c-16.5 0-30 13.5-30 30v70.6c-28.5 7.9-56.1 19.3-82.4 34.2l-50-50c-11.7-11.7-30.8-11.7-42.4 0l-92 91.9c-11.7 11.7-11.7 30.8 0 42.4l50 50c-15.2 26.7-26.8 54.8-34.6 83.8H93.1c-16.5 0-30 13.5-30 30v130c0 16.5 13.5 30 30 30h71.4c7.9 28.7 19.3 56.6 34.4 83l-49.6 49.6c-11.7 11.7-11.7 30.8 0 42.4l91.9 91.9c11.7 11.7 30.8 11.7 42.4 0l49.6-49.6c26.8 15.3 55.2 26.9 84.4 34.8v70.8c0 16.5 13.5 30 30 30h130c16.5 0 30-13.5 30-30v-71.4c29.2-8 57.5-19.8 84.3-35.3l49.6 49.6c11.7 11.7 30.8 11.7 42.4 0l91.9-91.9c11.7-11.7 11.7-30.8 0-42.4l-50.4-50.4c14.6-25.9 25.7-53.2 33.4-81.2h70.3c16.5 0 30-13.5 30-30v-130c0-16.3-13.5-29.8-30-29.8z m-91.9 66.4c-3.7 6.5-51.9 93.5-59.2 103.8-10.3 14.5-32.2 16.4-42.9 0.8-5.2-7.6-54.3-94.3-59.6-103.7-11.5-20.4 1.2-43.2 23.6-42.8 2.6 0 12.5 0.1 25.3 0.1-29.3-91.9-113.8-158.2-213.6-158.2-100 0-184.6 66.7-213.7 158.6-23.9 79.2-4.8 169.3 56.9 231.9 86.9 88.1 225.9 89 312.9 3 5-7.6 13.5-12.6 23.2-12.6 15.5 0 28.1 12.9 28.1 28.8 0 7.7-3 14.7-7.8 19.9l-0.3 0.3-0.3 0.3c-108.6 112-285.4 112.6-395.2 1.3-55-55.8-82.8-129-83.3-202.3h-0.6c0-30.2 4.5-59.1 13-86.4 12.8-42.7 35.6-83.1 68.3-117l0.7 0.8c50.7-51.9 120.8-84 198.2-84 130.7 0 240.6 91.7 271.5 215.7 15.6 0 27.9 0 30-0.1 24.7-0.6 35.9 21.9 24.8 41.8z" p-id="6671"></path></svg>